<?xml version="1.0" encoding="UTF-8"?>
<svg id="Layer_1" data-name="Layer 1" xmlns="http://www.w3.org/2000/svg" viewBox="0 0 267.2 160.3">
  <g id="TZKDNr">
    <path d="M167.1,145.3c-9.9,11.8-25.7,16.7-40.7,14.5-20.7-3-36.4-21.2-37.1-41.9-.3-7.1,2.9-13.7,7.1-18.9l13.5-16.6c.9-1.2.2-4.1-.9-4.7s-3.8-.4-5,1.1l-25.4,30.2c-17.8,21.2-49.9,20.8-67.8.1C.5,97.2-2.6,81.8,2.2,66.6c3.5-11,10.4-20.3,20.8-25.8,12.6-6.6,27.2-7,40.1-1.3,1.2.5,2.5,1.9,2.8,2.9s0,3.5-.7,4.3l-12.2,14.4c-.9,1.1-.4,4,.5,4.8s3.6.9,4.7-.4L102.4,13.2C111.6,2.3,127-.5,140.6,0c19.1.8,34.3,11.1,43,27.5,4.8,9,6.6,18.5,2.8,28.5-2.4,6.3-5.7,12.3-10,17.6l-10.5,12.9c-.8,1-.2,3.7.7,4.4s3.7.9,4.5,0l17.8-21.2c16.5-19.6,44.4-21.7,63.7-4.8,20.5,18.1,19.4,52.1-3.2,68.7-26,19-54.5,2.2-55.8-3.7-.5-2.1.2-5.4,1.5-6.8l17.4-20.5c1.1-1.3.7-4.1-.4-5.1-1.3-1-4-.9-5.1.5l-39.7,47.3Z"/>
  </g>
</svg>