<svg width="1382" height="339" viewBox="0 0 1382 339" fill="none" xmlns="http://www.w3.org/2000/svg">
<path d="M450.701 120.534H387.547C404.261 126.078 420.533 134.322 427.591 139.351C475.379 170.582 472.022 236.112 422.126 263.589C383.945 284.615 328.389 282.088 294.006 247.324C270.749 223.796 261.118 195.116 265.529 162.167C270.798 122.963 292.315 95.902 328.389 80.7156C369.829 63.2477 421.367 78.3113 447.368 114.817C448.397 116.265 449.157 117.884 450.701 120.534ZM311.945 121.711C308.489 121.711 309.273 127.428 309.077 130.911C307.681 157.8 313.096 177.893 325.962 201.519C338.73 224.973 356.179 243.423 382.916 250.832C406.81 255.518 424.675 247.544 438.668 229.733C453.544 210.768 456.337 187.584 444.819 166.902C434.772 148.87 422.028 139.253 404.457 131.23C377.72 119.503 380.563 121.711 311.945 121.711ZM389.582 115.063C387.891 111.334 387.866 110.99 386.469 108.267C376.495 88.8363 354.562 76.1769 333.02 83.2671C320.252 87.4624 308.759 101.618 310.254 115.259C336.5 115.259 361.84 115.063 389.582 115.063Z" fill="#2D2D2D"/>
<path d="M41.4897 23.7V29.2692C41.4897 93.1057 41.5387 156.942 41.3916 220.754C41.3916 225.735 42.911 229.243 46.391 232.751C56.6837 243.031 66.6089 253.678 77.3673 264.89H0C5.73454 258.659 11.028 252.918 16.3214 247.177C21.4433 241.632 26.7612 236.235 31.589 230.445C33.2064 228.507 34.4318 225.514 34.4318 223.011C34.5788 156.01 34.5298 89.0086 34.6278 22.0072C34.6278 18.597 33.7701 16.1437 30.6822 14.8189C22.2275 11.1879 13.7482 7.67957 5.29342 3.99952C4.14161 3.50885 3.18586 2.47844 2.10757 1.69336C3.38191 1.15362 4.63175 0.123205 5.88158 0.123205C17.1301 0.000537192 28.3541 0.0496045 39.6026 0.0496045C55.5564 0.0496045 71.5347 0.123205 87.4885 0.000537193C90.8949 -0.0239964 93.174 0.785614 95.4287 3.70512C139.001 60.3042 182.746 116.805 226.441 173.306C227.593 174.778 228.867 176.177 231.073 178.753V171.834C231.073 129.097 231.024 86.359 231.171 43.6459C231.195 39.4261 229.847 36.4575 226.906 33.489C216.418 22.915 206.198 12.0466 195.195 0.564811H271.778C271.263 1.42349 270.847 2.47844 270.136 3.26351C260.481 13.7148 250.678 24.019 241.194 34.593C239.527 36.433 238.278 39.4261 238.253 41.8795C238.106 115.554 238.131 189.229 238.131 262.928C238.131 264.596 237.983 266.289 237.836 269.257C172.502 186.432 107.952 104.587 43.4012 22.7432C42.764 23.0622 42.1268 23.3811 41.4897 23.7Z" fill="#2D2D2D"/>
<path d="M462.317 82.4328H539.023V88.0265C539.023 130.224 538.998 172.447 539.047 214.645C539.072 225.071 540.003 235.376 545.836 244.502C552.55 254.978 562.623 257.26 574.141 252.745C589.457 246.71 599.187 234.59 607.029 220.753C607.739 219.502 607.568 217.687 607.568 216.117C607.592 178.825 607.421 142.835 607.543 105.544C607.568 102.06 606.293 100.195 603.549 98.3552C596.025 93.3503 588.722 88.051 580.096 81.9912H658.468C658.468 85.9166 658.468 89.7193 658.468 93.522C658.345 142.933 658.272 192.344 658.002 241.779C657.978 245.189 659.203 247.25 661.654 249.286C669.52 255.861 677.265 262.608 686.185 270.213H608.72V231.058C602.789 237.804 597.912 244.698 591.737 250.096C573.798 265.773 552.894 272.765 529.024 268.815C508.292 265.38 491.382 246.219 489.618 223.869C488.858 214.252 488.833 204.561 488.809 194.895C488.711 166.927 488.441 138.958 489.005 111.015C489.152 103.483 486.971 99.0666 480.501 95.5829C474.08 92.1236 468.199 87.683 462.097 83.6595C462.146 83.267 462.244 82.8499 462.317 82.4328Z" fill="#2D2D2D"/>
<path d="M782.52 81.9666V127.256C782.887 127.427 783.23 127.575 783.598 127.746C784.431 126.225 785.166 124.655 786.122 123.208C792.151 114.008 797.175 103.875 804.478 95.8771C819.794 79.1452 841.532 75.8086 863.342 85.4749C861.161 92.099 858.98 98.8212 856.75 105.543C854.496 112.339 852.216 119.135 849.839 126.225C843.909 123.527 838.395 120.607 832.611 118.448C823.372 114.989 813.864 111.898 803.963 114.94C800.311 116.068 796.39 118.252 793.964 121.122C787.347 128.973 783.157 137.658 783.377 148.772C783.99 179.341 783.671 209.934 783.5 240.528C783.475 244.649 784.75 247.25 787.887 249.826C795.704 256.18 803.179 262.976 811.682 270.385H704.883C708.363 267.294 711.206 264.693 714.146 262.166C719.317 257.701 724.733 253.457 729.61 248.697C731.35 247.004 732.771 244.06 732.796 241.656C732.967 196.318 732.894 150.955 732.992 105.592C732.992 102.403 731.987 100.514 729.34 98.7721C721.523 93.62 713.901 88.1736 705.005 82.0156H782.52V81.9666Z" fill="#2D2D2D"/>
<path d="M1313.82 75.3916H1382L1344.82 117.54L1301.2 236.357V272.642H1258.63L1220.43 157.457L1191.27 236.357V272.642H1148.7L1090.37 97.4964L1071.84 75.3916H1161.71L1143.97 97.4964L1188.2 226.323L1216.97 147.03L1200.31 97.4964L1181.81 75.3916H1272.04L1253.93 97.4964L1298.11 226.323L1338.33 117.05L1313.82 75.3916Z" fill="#2D2D2D"/>
<path d="M973.451 282.554C916.767 282.726 870.94 236.431 870.573 178.605C870.205 121.049 916.204 73.9692 973.059 73.7238C1029.84 73.4539 1076.4 120.338 1076.43 177.796C1076.45 235.965 1030.85 282.382 973.451 282.554ZM1031.97 222.766C1031.12 187.241 1020.36 154.832 1001.49 125.097C992.174 110.402 981.024 97.3743 965.977 88.2477C946.641 76.5207 926.668 83.5618 918.875 104.931C915.469 114.278 914.243 124.018 914.562 133.856C915.861 174.214 929.07 210.352 953.062 242.491C961.492 253.801 971.417 263.59 984.234 269.87C1001.68 278.408 1018.52 272.176 1026.48 254.365C1030.97 244.282 1031.97 233.634 1031.97 222.766Z" fill="#2D2D2D"/>
<path d="M970.584 337.951L970.633 338.024C977.544 333.486 984.332 328.751 990.9 323.623C994.184 321.047 997.394 318.397 1000.56 315.674C1003.69 312.902 1006.73 310.032 1009.7 307.014C1015.58 300.979 1021.09 294.379 1025.41 286.798C1027.56 283.02 1029.42 278.996 1030.8 274.752C1031.51 272.642 1032.05 270.459 1032.49 268.251C1032.93 266.043 1033.22 263.81 1033.37 261.553C1034.03 252.672 1032.71 243.668 1030.01 235.302C1027.29 226.912 1023.27 219.085 1018.64 211.872C1013.96 204.66 1008.72 197.962 1003.23 191.559C997.737 185.18 992.027 179.071 986.293 173.085C974.823 161.137 963.134 149.606 952.964 137.192C947.891 130.985 943.308 124.508 939.461 117.786C935.637 111.064 932.599 104.023 931.03 96.6624C930.222 92.9824 929.854 89.2042 929.878 85.4015C929.903 81.5743 930.32 77.747 931.177 73.9688C931.618 72.0797 932.133 70.2152 932.795 68.3752C933.456 66.5351 934.216 64.7196 935.074 62.9532C936.765 59.3713 938.897 55.9857 941.274 52.7718C946.077 46.3439 951.934 40.6276 958.233 35.4755C962.717 31.7955 967.447 28.4099 972.299 25.196L1055.92 133.929L1061.75 129.439L976.784 18.8172L976.392 18.2529C969.53 22.8407 962.644 27.453 956.027 32.507C949.41 37.5609 943.063 43.1055 937.475 49.5333C934.706 52.7718 932.109 56.2065 929.805 59.8865C927.526 63.5911 925.59 67.541 924.046 71.7117C922.502 75.8825 921.448 80.2494 920.884 84.7146C920.321 89.1797 920.296 93.743 920.737 98.2817C921.693 107.335 924.806 115.995 928.972 123.723C933.138 131.5 938.333 138.443 943.749 144.994C949.19 151.544 954.9 157.678 960.732 163.639C966.565 169.601 972.422 175.415 978.23 181.205C984.038 186.995 989.748 192.834 995.164 198.845C1000.58 204.856 1005.68 211.087 1010.14 217.662C1014.65 224.188 1018.49 231.107 1021.12 238.418C1022.44 242.073 1023.44 245.802 1024.08 249.605C1024.72 253.408 1024.99 257.26 1024.89 261.111C1024.84 263.001 1024.67 264.914 1024.38 266.779C1024.08 268.668 1023.71 270.532 1023.18 272.372C1022.17 276.077 1020.68 279.683 1018.91 283.167C1015.28 290.135 1010.55 296.685 1005.24 302.745C999.918 308.829 994.061 314.521 987.984 319.992C983.67 323.844 979.21 327.549 974.701 331.18L891.084 222.422L885.252 226.912L970.584 337.951Z" fill="#2D2D2D"/>
</svg>
