<svg width="31" height="31" viewBox="0 0 31 31" fill="none" xmlns="http://www.w3.org/2000/svg">
  <!-- Outer O shape - positioned at ~17% inset from edges -->
  <g transform="translate(5.17, 5.37)">
    <path d="M10.7856 20.4673C4.84316 20.4841 0.0387634 15.9468 0.000229423 10.2794C-0.038312 4.63843 4.78407 0.0241583 10.7446 0.000113605C16.6974 -0.0263348 21.5788 4.5687 21.5814 10.2C21.5839 15.9011 16.8027 20.448 10.7856 20.4673ZM17.8699 13.6356C17.78 10.1539 16.8285 7.40822 14.6421 4.62734C13.1254 2.69834 11.9197 1.91574 10.1892 1.206C7.9456 0.478916 5.58072 1.40455 4.47233 3.29882C3.36394 5.48271 3.50005 8.61283 4.21953 10.833C5.7946 15.0005 7.1363 16.2587 7.70016 16.9659C8.58403 18.0744 10.3836 19.077 11.5697 19.4592C13.5531 19.8595 15.0698 19.532 16.4115 18.1124C17.1033 17.3807 17.6365 16.4746 17.8699 13.6356Z" fill="#1E1E1E"/>
  </g>
  <!-- Diagonal slash - positioned at ~2% top/bottom, ~20-23% left/right -->
  <g transform="translate(7.28, 0.74)">
    <path d="M8.50065 29.7606L8.50556 29.7674C9.19401 29.3449 9.87033 28.9041 10.5245 28.4268C10.8517 28.1869 11.1715 27.9402 11.4864 27.6867C11.7989 27.4286 12.1016 27.1614 12.3971 26.8804C12.983 26.3186 13.5322 25.7042 13.9619 24.9985C14.1768 24.6467 14.3623 24.2721 14.499 23.877C14.5698 23.6806 14.6235 23.4773 14.6675 23.2717C14.7114 23.0662 14.7407 22.8583 14.7554 22.6482C14.8213 21.8214 14.6895 20.9831 14.4209 20.2044C14.1499 19.4232 13.7495 18.6945 13.2881 18.0231C12.8218 17.3516 12.2994 16.728 11.7525 16.1319C11.2057 15.5381 10.6368 14.9694 10.0655 14.4121C8.92298 13.2998 7.75855 12.2263 6.74541 11.0706C6.24004 10.4927 5.78348 9.88971 5.40022 9.26393C5.01935 8.63814 4.71661 7.98259 4.56041 7.29741C4.47981 6.95479 4.4432 6.60307 4.44566 6.24903C4.44811 5.89273 4.48956 5.53644 4.575 5.18467C4.61898 5.00884 4.67025 4.83524 4.73619 4.66394C4.80212 4.49264 4.87773 4.32362 4.96316 4.15917C5.13165 3.82571 5.34404 3.51052 5.58091 3.21132C6.05935 2.6129 6.64279 2.08073 7.27021 1.60109C7.71702 1.25849 8.18824 0.943293 8.67159 0.644086L17.0013 10.7668L17.5824 10.3489L9.11833 0.0525321L9.07926 0C8.39572 0.427111 7.70973 0.856506 7.05053 1.32701C6.3914 1.79751 5.75907 2.3137 5.20242 2.9121C4.92662 3.2136 4.6678 3.53336 4.43836 3.87596C4.21124 4.22084 4.01842 4.58857 3.8646 4.97686C3.71077 5.36513 3.60584 5.7717 3.54966 6.18739C3.49354 6.60307 3.49109 7.02787 3.53507 7.45042C3.63025 8.29321 3.94028 9.09946 4.35531 9.81894C4.77034 10.543 5.28793 11.1894 5.82746 11.7991C6.36938 12.409 6.93823 12.98 7.51929 13.535C8.10035 14.09 8.6838 14.6314 9.2624 15.1704C9.84101 15.7094 10.4098 16.253 10.9493 16.8126C11.4889 17.3722 11.9967 17.9523 12.441 18.5644C12.8902 19.1719 13.2735 19.816 13.5347 20.4967C13.6665 20.837 13.7667 21.1841 13.8301 21.5382C13.8936 21.8922 13.9204 22.2508 13.9107 22.6094C13.9057 22.7853 13.8887 22.9634 13.8594 23.137C13.8301 23.3129 13.7935 23.4864 13.7398 23.6577C13.6397 24.0026 13.4907 24.3384 13.315 24.6627C12.9536 25.3113 12.4825 25.9212 11.9527 26.4854C11.4229 27.0518 10.8395 27.5816 10.234 28.091C9.80439 28.4496 9.36004 28.7944 8.91085 29.1325L0.581024 19.0075L0 19.4255L8.50065 29.7606Z" fill="#1E1E1E"/>
  </g>
</svg>
