<svg width="95" height="37" viewBox="0 0 95 37" fill="none" xmlns="http://www.w3.org/2000/svg">
<path d="M4 8V29C2.01082 27.4005 0.354771 23.7634 0.0557805 19.957C-0.203618 16.6504 0.457165 13.2122 1.71593 10.7376C2.30435 9.58279 3.14808 8.41841 4 8Z" fill="#1E1E1E"/>
<path d="M13 4V33C9.51894 30.7911 6.62085 25.7685 6.09762 20.5121C5.64367 15.9457 6.80004 11.1978 9.00288 7.78051C10.0326 6.18576 11.5091 4.57781 13 4Z" fill="#1E1E1E"/>
<path d="M27 2V35C21.0325 32.4865 16.0643 26.771 15.1673 20.7896C14.3891 15.5934 16.3715 10.1906 20.1478 6.30196C21.9131 4.48725 24.4442 2.6575 27 2Z" fill="#1E1E1E"/>
<rect x="29" width="37" height="37" rx="18.5" fill="#1E1E1E"/>
<path d="M47.4709 24.1591C46.6224 24.1591 45.8667 24.0133 45.2038 23.7216C44.5447 23.4261 44.0239 23.0208 43.6413 22.5057C43.2625 21.9867 43.0675 21.3883 43.0561 20.7102H45.5334C45.5485 20.9943 45.6413 21.2443 45.8118 21.4602C45.986 21.6723 46.2171 21.8371 46.505 21.9545C46.7929 22.072 47.1167 22.1307 47.4766 22.1307C47.8516 22.1307 48.183 22.0644 48.4709 21.9318C48.7588 21.7992 48.9841 21.6155 49.147 21.3807C49.3099 21.1458 49.3913 20.875 49.3913 20.5682C49.3913 20.2576 49.3042 19.983 49.13 19.7443C48.9595 19.5019 48.7133 19.3125 48.3913 19.1761C48.0732 19.0398 47.6944 18.9716 47.255 18.9716H46.1697V17.1648H47.255C47.6262 17.1648 47.9538 17.1004 48.2379 16.9716C48.5258 16.8428 48.7493 16.6648 48.9084 16.4375C49.0675 16.2064 49.147 15.9375 49.147 15.6307C49.147 15.339 49.0769 15.0833 48.9368 14.8636C48.8004 14.6402 48.6072 14.4659 48.3572 14.3409C48.111 14.2159 47.8232 14.1534 47.4936 14.1534C47.1603 14.1534 46.8554 14.214 46.5788 14.3352C46.3023 14.4527 46.0807 14.6212 45.9141 14.8409C45.7474 15.0606 45.6584 15.3182 45.647 15.6136H43.2891C43.3004 14.9432 43.4917 14.3523 43.8629 13.8409C44.2341 13.3295 44.7341 12.9299 45.3629 12.642C45.9955 12.3504 46.7095 12.2045 47.505 12.2045C48.308 12.2045 49.0107 12.3504 49.6129 12.642C50.2152 12.9337 50.683 13.3277 51.0163 13.8239C51.3535 14.3163 51.5201 14.8693 51.5163 15.483C51.5201 16.1345 51.3175 16.678 50.9084 17.1136C50.5031 17.5492 49.9747 17.8258 49.3232 17.9432V18.0341C50.1792 18.1439 50.8307 18.4413 51.2777 18.9261C51.7285 19.4072 51.9519 20.0095 51.9482 20.733C51.9519 21.3958 51.7607 21.9848 51.3743 22.5C50.9917 23.0152 50.4633 23.4205 49.7891 23.7159C49.1148 24.0114 48.3421 24.1591 47.4709 24.1591Z" fill="white"/>
<path d="M68 35L68 2C73.9675 4.51354 78.9357 10.229 79.8327 16.2104C80.6109 21.4066 78.6285 26.8094 74.8522 30.698C73.0869 32.5128 70.5558 34.3425 68 35Z" fill="#1E1E1E"/>
<path d="M82 33L82 4C85.4811 6.20887 88.3792 11.2315 88.9024 16.4879C89.3563 21.0543 88.2 25.8022 85.9971 29.2195C84.9674 30.8142 83.4909 32.4222 82 33Z" fill="#1E1E1E"/>
<path d="M91 29L91 8C92.9892 9.59953 94.6452 13.2366 94.9442 17.043C95.2036 20.3496 94.5428 23.7878 93.2841 26.2624C92.6956 27.4172 91.8519 28.5816 91 29Z" fill="#1E1E1E"/>
</svg>
