<svg width="95" height="37" viewBox="0 0 95 37" fill="none" xmlns="http://www.w3.org/2000/svg">
<path d="M4 8V29C2.01082 27.4005 0.354771 23.7634 0.0557805 19.957C-0.203618 16.6504 0.457165 13.2122 1.71593 10.7376C2.30435 9.58279 3.14808 8.41841 4 8Z" fill="#1E1E1E"/>
<path d="M13 4V33C9.51894 30.7911 6.62085 25.7685 6.09762 20.5121C5.64367 15.9457 6.80004 11.1978 9.00288 7.78051C10.0326 6.18576 11.5091 4.57781 13 4Z" fill="#1E1E1E"/>
<path d="M27 2V35C21.0325 32.4865 16.0643 26.771 15.1673 20.7896C14.3891 15.5934 16.3715 10.1906 20.1478 6.30196C21.9131 4.48725 24.4442 2.6575 27 2Z" fill="#1E1E1E"/>
<rect x="29" width="37" height="37" rx="18.5" fill="#1E1E1E"/>
<path d="M49.5916 12.3636V24H47.1314V14.6989H47.0632L44.3984 16.3693V14.1875L47.2791 12.3636H49.5916Z" fill="white"/>
<path d="M68 35L68 2C73.9675 4.51354 78.9357 10.229 79.8327 16.2104C80.6109 21.4066 78.6285 26.8094 74.8522 30.698C73.0869 32.5128 70.5558 34.3425 68 35Z" fill="#1E1E1E"/>
<path d="M82 33L82 4C85.4811 6.20887 88.3792 11.2315 88.9024 16.4879C89.3563 21.0543 88.2 25.8022 85.9971 29.2195C84.9674 30.8142 83.4909 32.4222 82 33Z" fill="#1E1E1E"/>
<path d="M91 29L91 8C92.9892 9.59953 94.6452 13.2366 94.9442 17.043C95.2036 20.3496 94.5428 23.7878 93.2841 26.2624C92.6956 27.4172 91.8519 28.5816 91 29Z" fill="#1E1E1E"/>
</svg>
