<svg width="95" height="37" viewBox="0 0 95 37" fill="none" xmlns="http://www.w3.org/2000/svg">
<path d="M4 8V29C2.01082 27.4005 0.354771 23.7634 0.0557805 19.957C-0.203618 16.6504 0.457165 13.2122 1.71593 10.7376C2.30435 9.58279 3.14808 8.41841 4 8Z" fill="#1E1E1E"/>
<path d="M13 4V33C9.51894 30.7911 6.62085 25.7685 6.09762 20.5121C5.64367 15.9457 6.80004 11.1978 9.00288 7.78051C10.0326 6.18576 11.5091 4.57781 13 4Z" fill="#1E1E1E"/>
<path d="M27 2V35C21.0325 32.4865 16.0643 26.771 15.1673 20.7896C14.3891 15.5934 16.3715 10.1906 20.1478 6.30196C21.9131 4.48725 24.4442 2.6575 27 2Z" fill="#1E1E1E"/>
<rect x="29" width="37" height="37" rx="18.5" fill="#1E1E1E"/>
<path d="M43.4041 24V22.2273L47.5462 18.392C47.8984 18.0511 48.1939 17.7443 48.4325 17.4716C48.675 17.1989 48.8587 16.9318 48.9837 16.6705C49.1087 16.4053 49.1712 16.1193 49.1712 15.8125C49.1712 15.4716 49.0935 15.178 48.9382 14.9318C48.7829 14.6818 48.5708 14.4905 48.3018 14.358C48.0329 14.2216 47.728 14.1534 47.3871 14.1534C47.031 14.1534 46.7204 14.2254 46.4553 14.3693C46.1901 14.5133 45.9856 14.7197 45.8416 14.9886C45.6977 15.2576 45.6257 15.5777 45.6257 15.9489H43.2905C43.2905 15.1875 43.4628 14.5265 43.8075 13.9659C44.1522 13.4053 44.6352 12.9716 45.2564 12.6648C45.8776 12.358 46.5935 12.2045 47.4041 12.2045C48.2375 12.2045 48.9628 12.3523 49.5803 12.6477C50.2015 12.9394 50.6844 13.3447 51.0291 13.8636C51.3738 14.3826 51.5462 14.9773 51.5462 15.6477C51.5462 16.0871 51.459 16.5208 51.2848 16.9489C51.1143 17.3769 50.8094 17.8523 50.37 18.375C49.9306 18.8939 49.3113 19.517 48.5121 20.2443L46.8132 21.9091V21.9886H51.6996V24H43.4041Z" fill="white"/>
<path d="M68 35L68 2C73.9675 4.51354 78.9357 10.229 79.8327 16.2104C80.6109 21.4066 78.6285 26.8094 74.8522 30.698C73.0869 32.5128 70.5558 34.3425 68 35Z" fill="#1E1E1E"/>
<path d="M82 33L82 4C85.4811 6.20887 88.3792 11.2315 88.9024 16.4879C89.3563 21.0543 88.2 25.8022 85.9971 29.2195C84.9674 30.8142 83.4909 32.4222 82 33Z" fill="#1E1E1E"/>
<path d="M91 29L91 8C92.9892 9.59953 94.6452 13.2366 94.9442 17.043C95.2036 20.3496 94.5428 23.7878 93.2841 26.2624C92.6956 27.4172 91.8519 28.5816 91 29Z" fill="#1E1E1E"/>
</svg>
